<?xml version="1.0" encoding="iso-8859-1"?>
<!-- Generator: Adobe Illustrator 19.0.0, SVG Export Plug-In . SVG Version: 6.00 Build 0)  -->
<svg version="1.1" id="Capa_1" xmlns="http://www.w3.org/2000/svg" xmlns:xlink="http://www.w3.org/1999/xlink" x="0px" y="0px"
	 viewBox="0 0 50.111 50.111" style="enable-background:new 0 0 50.111 50.111;" xml:space="preserve">
<g>
	<path d="M43.974,38.349c-0.081-0.321-0.314-0.582-0.625-0.696c-0.312-0.115-0.659-0.067-0.928,0.125
		c-4.763,3.408-9.679,0.706-14.884-2.154c-2.847-1.564-5.773-3.172-8.782-3.816c2.46-2.727,5.099-5.538,7.663-8.268
		c3.001-3.195,6.103-6.5,9.007-9.758c0.425-0.477,0.871-0.948,1.32-1.422c2.588-2.732,5.521-5.828,4.898-10.769
		c-0.034-0.272-0.179-0.518-0.398-0.68c-0.221-0.162-0.498-0.227-0.768-0.18C33.15,2.024,22.655,2.635,17.185,0.093
		C16.794-0.088,16.332,0,16.037,0.313c-2.123,2.241-4.466,5.164-3.736,7.895c0.846,3.153,6.393,3.003,11.759,2.864
		c0.241-0.006,0.479-0.013,0.715-0.019c-3.576,4.731-7.853,9.865-12.736,15.289c-0.451,0.501-0.924,0.987-1.397,1.473
		c-2.654,2.732-5.663,5.829-4.636,11.662c0.093,0.53,0.59,0.894,1.123,0.817c5.33-0.746,10.337,0.341,14.888,3.236
		c0.952,0.607,1.872,1.286,2.846,2.005c2.257,1.665,4.591,3.387,7.372,4.173c0.957,0.271,1.919,0.403,2.86,0.403
		c2.454,0,4.773-0.899,6.523-2.598C43.994,45.209,44.852,41.869,43.974,38.349z M40.226,46.077
		c-1.904,1.847-4.688,2.486-7.448,1.706c-2.43-0.687-4.614-2.299-6.728-3.857c-0.958-0.707-1.949-1.438-2.959-2.083
		c-3.952-2.514-8.22-3.779-12.729-3.779c-0.831,0-1.67,0.043-2.517,0.129c-0.411-4.206,1.752-6.433,4.231-8.983
		c0.49-0.504,0.979-1.008,1.448-1.529c5.492-6.099,10.227-11.841,14.072-17.066c0.224-0.304,0.257-0.708,0.087-1.044
		s-0.516-0.549-0.893-0.549c-0.854,0-1.8,0.025-2.784,0.051c-3.488,0.092-9.337,0.247-9.774-1.382
		c-0.461-1.728,1.604-4.211,2.78-5.494c6.961,2.803,18.53,1.348,22.714,0.685c0.011,3.409-2.153,5.694-4.434,8.101
		c-0.463,0.489-0.923,0.975-1.362,1.467c-2.885,3.238-5.978,6.533-8.971,9.72c-3.012,3.208-6.127,6.524-8.946,9.7
		c-0.254,0.286-0.322,0.692-0.177,1.045c0.146,0.354,0.481,0.593,0.863,0.617c3.243,0.201,6.614,2.053,9.874,3.844
		c5.103,2.803,10.362,5.691,15.697,2.847C42.482,42.501,41.767,44.583,40.226,46.077z"/>
</g>
<g>
</g>
<g>
</g>
<g>
</g>
<g>
</g>
<g>
</g>
<g>
</g>
<g>
</g>
<g>
</g>
<g>
</g>
<g>
</g>
<g>
</g>
<g>
</g>
<g>
</g>
<g>
</g>
<g>
</g>
</svg>
